<svg width="180" height="883" viewBox="0 0 180 883" fill="none" xmlns="http://www.w3.org/2000/svg">
<g filter="url(#filter0_d_1528_43)">
<path d="M99.483 148.668C108.849 156.25 119.999 161.379 132.71 161.602L184 161.602V128.152L132.71 128.152C123.79 127.483 116.877 120.124 116.877 111.204C116.877 91.58 116.877 71.287 116.877 51.663C116.877 42.297 123.79 35.161 132.71 34.938L184 34.938L184 1.488L132.71 1.488C119.999 1.711 108.849 6.617 99.483 14.645C92.124 7.509 78.298 0.819001 67.371 1.488L16.527 1.488L16.527 34.938L68.263 34.938C76.737 35.83 83.427 42.966 83.427 51.663C83.427 71.287 83.427 91.58 83.427 111.204C83.427 119.678 76.737 127.26 68.263 128.152H16.527L16.527 161.379H67.371C78.298 162.271 92.124 155.581 99.483 148.668ZM16.527 321.718L16.527 355.168L101.267 355.168C213.436 355.168 210.314 185.019 101.267 185.019L16.527 185.019L16.527 218.246L101.267 218.246C170.397 218.246 167.498 321.718 101.267 321.718L16.527 321.718ZM69.378 622.623C69.378 622.623 154.564 622.846 184 622.846L184 589.619L80.305 589.619C44.625 590.957 58.228 575.347 80.082 565.758L184 519.374V519.151L184 483.025V482.579L80.082 436.195C58.228 426.829 44.625 411.219 80.305 412.334L184 412.557L184 379.33C154.564 379.33 69.378 379.33 69.378 379.776C34.367 378.215 13.851 394.048 15.189 415.01C16.527 433.965 31.691 450.244 65.587 466.077L143.414 501.088L65.587 535.876C31.691 551.932 16.527 567.542 15.189 586.943C13.851 607.682 34.367 623.961 69.378 622.623ZM184 675.03L184 638.458L52.653 700.452C4.708 724.09 4.03899 788.091 52.653 811.952L184 874.169L184 836.928L66.925 782.07C43.733 769.359 43.733 742.599 66.925 730.557L184 675.03Z" fill="#AF1315"/>
</g>
<defs>
<filter id="filter0_d_1528_43" x="0.0390625" y="0.819" width="217.396" height="881.35" filterUnits="userSpaceOnUse" color-interpolation-filters="sRGB">
<feFlood flood-opacity="0" result="BackgroundImageFix"/>
<feColorMatrix in="SourceAlpha" type="matrix" values="0 0 0 0 0 0 0 0 0 0 0 0 0 0 0 0 0 0 127 0" result="hardAlpha"/>
<feOffset dy="4"/>
<feGaussianBlur stdDeviation="2"/>
<feComposite in2="hardAlpha" operator="out"/>
<feColorMatrix type="matrix" values="0 0 0 0 0 0 0 0 0 0 0 0 0 0 0 0 0 0 0.25 0"/>
<feBlend mode="normal" in2="BackgroundImageFix" result="effect1_dropShadow_1528_43"/>
<feBlend mode="normal" in="SourceGraphic" in2="effect1_dropShadow_1528_43" result="shape"/>
</filter>
</defs>
</svg>
