<svg width="183" height="883" viewBox="0 0 183 883" fill="none" xmlns="http://www.w3.org/2000/svg">
<g filter="url(#filter0_d_812_1814)">
<path d="M83.517 148.668C74.151 156.25 63.001 161.379 50.29 161.602L-1 161.602V128.152L50.29 128.152C59.21 127.483 66.123 120.124 66.123 111.204C66.123 91.58 66.123 71.287 66.123 51.663C66.123 42.297 59.21 35.161 50.29 34.938L-1 34.938L-1 1.488L50.29 1.488C63.001 1.711 74.151 6.617 83.517 14.645C90.876 7.509 104.702 0.819001 115.629 1.488L166.473 1.488L166.473 34.938L114.737 34.938C106.263 35.83 99.573 42.966 99.573 51.663C99.573 71.287 99.573 91.58 99.573 111.204C99.573 119.678 106.263 127.26 114.737 128.152L166.473 128.152L166.473 161.379L115.629 161.379C104.702 162.271 90.876 155.581 83.517 148.668ZM166.473 321.718L166.473 355.168H81.733C-30.436 355.168 -27.314 185.019 81.733 185.019L166.473 185.019V218.246L81.733 218.246C12.603 218.246 15.502 321.718 81.733 321.718H166.473ZM113.622 622.623C113.622 622.623 28.436 622.846 -1 622.846L-1 589.619H102.695C138.375 590.957 124.772 575.347 102.918 565.758L-1 519.374V519.151L-1 483.025V482.579L102.918 436.195C124.772 426.829 138.375 411.219 102.695 412.334L-1 412.557L-1 379.33C28.436 379.33 113.622 379.33 113.622 379.776C148.633 378.215 169.149 394.048 167.811 415.01C166.473 433.965 151.309 450.244 117.413 466.077L39.586 501.088L117.413 535.876C151.309 551.932 166.473 567.542 167.811 586.943C169.149 607.682 148.633 623.961 113.622 622.623ZM-1 675.03L-1 638.458L130.347 700.452C178.292 724.09 178.961 788.091 130.347 811.952L-1 874.169L-1 836.928L116.075 782.07C139.267 769.359 139.267 742.599 116.075 730.557L-1 675.03Z" fill="#AF1315"/>
</g>
<defs>
<filter id="filter0_d_812_1814" x="-34.4355" y="0.819" width="217.396" height="881.35" filterUnits="userSpaceOnUse" color-interpolation-filters="sRGB">
<feFlood flood-opacity="0" result="BackgroundImageFix"/>
<feColorMatrix in="SourceAlpha" type="matrix" values="0 0 0 0 0 0 0 0 0 0 0 0 0 0 0 0 0 0 127 0" result="hardAlpha"/>
<feOffset dy="4"/>
<feGaussianBlur stdDeviation="2"/>
<feComposite in2="hardAlpha" operator="out"/>
<feColorMatrix type="matrix" values="0 0 0 0 0 0 0 0 0 0 0 0 0 0 0 0 0 0 0.25 0"/>
<feBlend mode="normal" in2="BackgroundImageFix" result="effect1_dropShadow_812_1814"/>
<feBlend mode="normal" in="SourceGraphic" in2="effect1_dropShadow_812_1814" result="shape"/>
</filter>
</defs>
</svg>
