<?xml version="1.0" encoding="UTF-8"?>
<svg version="1.1" xmlns="http://www.w3.org/2000/svg" width="105" height="82">
<path d="M0 0 C0 4.62 0 9.24 0 14 C-1.44375 14.556875 -2.8875 15.11375 -4.375 15.6875 C-7.97104939 17.25382018 -7.97104939 17.25382018 -10.4375 20.1875 C-10.623125 21.115625 -10.80875 22.04375 -11 23 C-11.66 25.97 -12.32 28.94 -13 32 C-5.41 32 2.18 32 10 32 C10 46.19 10 60.38 10 75 C-4.19 75 -18.38 75 -33 75 C-33.06895988 67.4374002 -33.12866985 59.87589639 -33.16479492 52.31323242 C-33.17985844 49.7419057 -33.2003132 47.17060457 -33.22631836 44.59936523 C-33.26280761 40.89821038 -33.27975121 37.197396 -33.29296875 33.49609375 C-33.30845261 32.35103867 -33.32393646 31.20598358 -33.33988953 30.02622986 C-33.34197697 20.07150556 -30.76823134 13.39574948 -24 6 C-16.74973996 -1.1590618 -9.64416533 -0.52130623 0 0 Z " fill="#AE1214" transform="translate(91,0)"/>
<path d="M0 0 C0 4.62 0 9.24 0 14 C-1.27875 14.556875 -2.5575 15.11375 -3.875 15.6875 C-7.15174044 17.33488973 -7.15174044 17.33488973 -9.375 20.1875 C-9.684375 21.5796875 -9.684375 21.5796875 -10 23 C-10.66 25.97 -11.32 28.94 -12 32 C-4.41 32 3.18 32 11 32 C11 46.19 11 60.38 11 75 C-3.19 75 -17.38 75 -32 75 C-32.06899631 67.31329994 -32.12869553 59.62768133 -32.16479492 51.94091797 C-32.17984933 49.32792513 -32.2002973 46.71495742 -32.22631836 44.10205078 C-32.26284778 40.33880395 -32.2797604 36.57589225 -32.29296875 32.8125 C-32.30845261 31.65073242 -32.32393646 30.48896484 -32.33988953 29.29199219 C-32.34186716 19.68684524 -30.68267355 12.88288001 -23.9296875 5.765625 C-16.60726925 -0.93423947 -9.68546469 -0.37251787 0 0 Z " fill="#AE1214" transform="translate(36,0)"/>
</svg>
