<svg xmlns="http://www.w3.org/2000/svg" version="1.1" xmlns:xlink="http://www.w3.org/1999/xlink" width="783.2911706927836" height="200" viewBox="0.11718180775642395 10.277567863464355 145.61032104492188 29.732433319091797"><path d="M10.41 10.59L10.41 10.59Q11.00 10.39 11.31 10.41Q11.62 10.43 11.93 10.61Q12.25 10.78 12.40 11.45Q12.56 12.11 13.22 12.23Q13.89 12.34 14.47 12.54Q15.06 12.73 15.80 13.59Q16.54 14.45 16.90 15.51Q17.27 16.56 17.02 18.30Q16.78 20.04 15.23 21.55Q13.69 23.07 12.65 23.92Q11.60 24.77 10.77 25.08Q9.94 25.39 10.42 25.75Q10.90 26.11 11.65 26.77Q12.40 27.42 13.98 28.54Q15.57 29.67 15.59 30.27Q15.61 30.88 13.56 30.09Q11.52 29.30 8.84 27.77Q6.15 26.25 5.53 26.09Q4.90 25.94 4.59 26.41Q4.28 26.88 3.18 28.95Q2.09 31.02 1.70 31.45Q1.31 31.88 1.00 32.03Q0.68 32.19 0.27 31.78Q-0.14 31.37 0.55 29.71Q1.23 28.05 1.82 27.03Q2.40 26.02 3.85 22.70Q5.29 19.38 6.07 17.58Q6.86 15.78 7.40 14.77Q7.95 13.75 8.89 12.27Q9.82 10.78 10.41 10.59ZM13.55 15.06L13.55 15.06Q12.64 14.53 11.86 14.66Q11.07 14.79 10.65 15.23Q10.23 15.68 9.83 16.28Q9.43 16.88 8.77 17.89Q8.11 18.91 7.13 21.05Q6.15 23.20 6.19 23.28Q6.23 23.36 6.93 23.71Q7.64 24.06 8.46 23.72Q9.28 23.38 10.49 22.67Q11.70 21.95 12.94 20.54Q14.18 19.12 14.31 18.04Q14.43 16.95 14.45 16.27Q14.47 15.59 13.55 15.06ZM19.73 22.56L19.73 22.56Q20.10 22.21 20.63 22.11Q21.17 22.01 21.52 22.17Q21.88 22.32 22.12 22.72Q22.36 23.13 23.34 23.11Q24.32 23.09 25.77 23.12Q27.23 23.14 25.16 23.20Q23.09 23.26 22.80 23.37Q22.52 23.48 22.57 24.06Q22.62 24.65 22.65 25.30Q22.68 25.96 22.66 26.76Q22.64 27.56 22.54 27.95Q22.44 28.34 22.25 28.77Q22.05 29.20 21.67 29.68Q21.29 30.16 20.73 30.57Q20.18 30.98 19.71 31.18Q19.24 31.39 18.69 31.20Q18.14 31.02 17.80 30.62Q17.46 30.21 17.26 29.79Q17.05 29.36 17.08 28.28Q17.11 27.21 17.31 26.55Q17.52 25.90 17.95 25.19Q18.38 24.47 18.20 24.52Q18.03 24.57 18.12 24.47Q18.20 24.38 18.79 23.63Q19.38 22.89 19.73 22.56ZM20.70 25.63L20.70 25.63Q20.27 25.10 19.63 25.92Q18.98 26.74 18.86 27.66Q18.73 28.57 18.96 28.95Q19.18 29.32 19.42 29.38Q19.67 29.43 20.12 29.05Q20.57 28.67 20.85 27.40Q21.13 26.13 20.70 25.63ZM30.47 10.47L30.47 10.47Q31.48 10.23 32.13 10.72Q32.77 11.21 31.88 12.44Q30.98 13.67 29.36 17.63Q27.73 21.58 27.25 23.24Q26.76 24.90 27.17 24.45Q27.58 24.00 27.98 23.64Q28.38 23.28 28.87 22.90Q29.36 22.52 29.76 22.34Q30.16 22.17 30.64 22.08Q31.13 21.99 31.53 22.22Q31.93 22.44 32.16 22.79Q32.38 23.14 32.43 24.06Q32.48 24.98 32.32 25.99Q32.17 26.99 32.30 27.50Q32.44 28.01 32.80 28.40Q33.16 28.79 34.04 28.58Q34.92 28.38 35.41 27.86Q35.90 27.34 35.63 27.93Q35.37 28.52 34.85 28.97Q34.34 29.43 33.59 29.78Q32.85 30.12 32.38 30.13Q31.91 30.14 31.43 29.74Q30.94 29.34 30.76 28.58Q30.59 27.83 30.68 26.25Q30.78 24.67 30.46 24.37Q30.14 24.06 28.80 25.06Q27.46 26.05 26.78 27.30Q26.09 28.55 25.76 29.42Q25.43 30.29 24.94 30.16Q24.45 30.02 24.18 29.71Q23.91 29.39 23.91 28.82Q23.91 28.24 25.08 24.36Q26.25 20.47 27.75 16.76Q29.26 13.05 29.51 12.25Q29.77 11.45 30.47 10.47ZM41.66 15.55L41.66 15.55Q42.09 15.90 42.18 17.08Q42.27 18.26 42.99 19.38Q43.71 20.51 44.69 21.17Q45.66 21.84 46.47 22.11Q47.29 22.38 46.43 22.24Q45.57 22.09 44.72 21.55Q43.87 21.02 42.89 19.95Q41.91 18.89 41.46 18.39Q41.02 17.89 40.83 17.83Q40.64 17.77 40.52 17.74Q40.39 17.71 39.93 17.35Q39.47 16.99 39.60 16.46Q39.73 15.94 39.94 15.68Q40.16 15.43 40.69 15.30Q41.23 15.18 41.66 15.55ZM38.54 21.46L38.54 21.46Q38.96 21.37 39.52 21.52Q40.08 21.68 39.72 22.66Q39.36 23.63 38.93 25.20Q38.50 26.76 38.12 27.73Q37.73 28.71 37.27 29.42Q36.80 30.14 36.37 30.20Q35.94 30.25 35.77 30.17Q35.61 30.08 35.74 29.26Q35.88 28.44 36.32 26.75Q36.76 25.06 37.15 23.81Q37.54 22.56 37.16 22.53Q36.78 22.50 37.45 22.03Q38.13 21.56 38.54 21.46ZM45.12 17.36L45.12 17.36Q45.35 17.09 45.86 17.13Q46.37 17.17 46.60 17.44Q46.84 17.71 46.99 18.11Q47.15 18.50 46.93 18.93Q46.72 19.36 46.52 20.05Q46.33 20.74 46.02 21.99Q45.70 23.24 46.05 23.40Q46.41 23.55 47.27 23.71Q48.13 23.87 50.01 23.83Q51.89 23.79 49.80 24.10Q47.71 24.41 46.71 24.67Q45.70 24.92 45.38 25.03Q45.06 25.14 44.29 27.20Q43.52 29.26 43.27 29.94Q43.03 30.63 42.75 30.86Q42.48 31.09 42.05 31.21Q41.62 31.33 41.27 31.17Q40.92 31.02 41.28 29.90Q41.64 28.79 42.27 27.27Q42.89 25.74 42.95 25.37Q43.01 25 42.44 25.10Q41.88 25.20 41.44 25.21Q41.00 25.21 41.01 24.66Q41.02 24.10 41.72 23.75Q42.42 23.40 42.97 23.39Q43.52 23.38 43.95 21.87Q44.38 20.35 44.45 19.85Q44.53 19.36 44.71 18.50Q44.88 17.64 45.12 17.36ZM66.05 14.45L66.05 14.45Q67.05 13.87 67.74 14.04Q68.44 14.22 68.79 14.68Q69.14 15.14 68.94 15.71Q68.73 16.29 68.22 16.43Q67.71 16.56 66.99 16.81Q66.27 17.05 65.40 17.63Q64.53 18.20 63.18 19.32Q61.84 20.43 60.49 21.85Q59.14 23.26 58.62 24.70Q58.11 26.13 58.06 26.72Q58.01 27.30 58.19 27.99Q58.38 28.67 58.82 29.06Q59.26 29.45 59.90 29.62Q60.55 29.79 61.26 29.73Q61.97 29.67 63.08 29.57Q64.18 29.47 65.96 28.98Q67.73 28.50 69.57 27.52Q71.41 26.54 71.97 25.96Q72.54 25.37 71.91 26.15Q71.29 26.93 70.14 27.68Q68.98 28.42 66.72 29.70Q64.45 30.98 63.38 31.33Q62.30 31.68 61.26 31.78Q60.21 31.88 59.33 31.73Q58.44 31.58 57.85 31.18Q57.27 30.78 56.60 29.86Q55.94 28.95 55.80 27.71Q55.66 26.48 56.00 25.21Q56.33 23.95 56.96 22.94Q57.60 21.93 58.58 20.61Q59.57 19.28 61.41 17.82Q63.24 16.37 64.16 15.70Q65.08 15.04 66.05 14.45ZM73.46 10.47L73.46 10.47Q74.47 10.23 75.12 10.72Q75.76 11.21 74.86 12.44Q73.96 13.67 72.34 17.63Q70.72 21.58 70.23 23.24Q69.75 24.90 70.16 24.45Q70.57 24.00 70.97 23.64Q71.37 23.28 71.86 22.90Q72.34 22.52 72.74 22.34Q73.14 22.17 73.63 22.08Q74.12 21.99 74.52 22.22Q74.92 22.44 75.15 22.79Q75.37 23.14 75.42 24.06Q75.47 24.98 75.31 25.99Q75.16 26.99 75.29 27.50Q75.43 28.01 75.79 28.40Q76.15 28.79 77.03 28.58Q77.91 28.38 78.40 27.86Q78.89 27.34 78.62 27.93Q78.36 28.52 77.84 28.97Q77.32 29.43 76.58 29.78Q75.84 30.12 75.37 30.13Q74.90 30.14 74.41 29.74Q73.93 29.34 73.75 28.58Q73.57 27.83 73.67 26.25Q73.77 24.67 73.45 24.37Q73.13 24.06 71.79 25.06Q70.45 26.05 69.77 27.30Q69.08 28.55 68.75 29.42Q68.42 30.29 67.93 30.16Q67.44 30.02 67.17 29.71Q66.89 29.39 66.89 28.82Q66.89 28.24 68.07 24.36Q69.24 20.47 70.74 16.76Q72.25 13.05 72.50 12.25Q72.75 11.45 73.46 10.47ZM81.23 22.56L81.23 22.56Q81.60 22.21 82.14 22.11Q82.68 22.01 83.03 22.17Q83.38 22.32 83.62 22.72Q83.87 23.13 84.84 23.11Q85.82 23.09 87.28 23.12Q88.73 23.14 86.66 23.20Q84.59 23.26 84.31 23.37Q84.02 23.48 84.07 24.06Q84.12 24.65 84.15 25.30Q84.18 25.96 84.16 26.76Q84.14 27.56 84.04 27.95Q83.95 28.34 83.75 28.77Q83.55 29.20 83.17 29.68Q82.79 30.16 82.24 30.57Q81.68 30.98 81.21 31.18Q80.74 31.39 80.20 31.20Q79.65 31.02 79.31 30.62Q78.96 30.21 78.76 29.79Q78.55 29.36 78.58 28.28Q78.61 27.21 78.82 26.55Q79.02 25.90 79.45 25.19Q79.88 24.47 79.71 24.52Q79.53 24.57 79.62 24.47Q79.71 24.38 80.29 23.63Q80.88 22.89 81.23 22.56ZM82.21 25.63L82.21 25.63Q81.78 25.10 81.13 25.92Q80.49 26.74 80.36 27.66Q80.23 28.57 80.46 28.95Q80.68 29.32 80.93 29.38Q81.17 29.43 81.62 29.05Q82.07 28.67 82.35 27.40Q82.64 26.13 82.21 25.63ZM93.46 23.26L93.46 23.26Q93.87 23.05 94.17 23.11Q94.47 23.16 94.59 23.39Q94.71 23.61 94.36 25.09Q94.00 26.56 93.89 27.60Q93.77 28.63 94.08 29.05Q94.39 29.47 95.17 29.36Q95.94 29.24 96.84 28.32Q97.73 27.40 97.04 28.23Q96.35 29.06 95.75 29.73Q95.16 30.39 94.71 30.57Q94.26 30.74 93.66 30.64Q93.07 30.55 92.70 30.18Q92.32 29.80 92.11 29.29Q91.89 28.77 92.07 28.02Q92.25 27.27 92.29 26.72Q92.34 26.17 91.86 26.78Q91.37 27.38 90.65 28.10Q89.94 28.81 89.14 29.36Q88.34 29.90 87.88 30.06Q87.42 30.21 86.96 30.28Q86.50 30.35 86.11 30.12Q85.72 29.88 85.63 29.38Q85.53 28.89 85.82 27.90Q86.11 26.91 86.81 25.21Q87.50 23.52 86.41 23.40Q85.31 23.28 84.77 22.92Q84.22 22.56 85.43 23.02Q86.64 23.48 87.11 22.93Q87.58 22.38 87.98 22.29Q88.38 22.19 88.74 22.32Q89.10 22.46 89.21 22.80Q89.32 23.14 89.17 23.61Q89.02 24.08 88.17 26.07Q87.32 28.07 88.13 27.83Q88.93 27.60 91.00 25.53Q93.07 23.46 93.46 23.26ZM101.58 10.59L101.58 10.59Q101.82 10.25 102.23 10.28Q102.64 10.31 102.99 10.63Q103.34 10.96 103.74 11.56Q104.14 12.17 104.44 13.99Q104.75 15.82 104.54 17.49Q104.34 19.16 104.21 19.61Q104.08 20.06 104.59 20.57Q105.10 21.07 105.07 21.50Q105.04 21.93 104.67 22.21Q104.30 22.48 103.95 22.38Q103.59 22.29 103.13 23.46Q102.68 24.63 102.01 25.75Q101.35 26.88 100.80 27.64Q100.25 28.40 99.31 29.23Q98.36 30.06 97.83 30.18Q97.30 30.29 96.91 30.17Q96.52 30.04 96.19 29.51Q95.86 28.98 95.83 27.54Q95.80 26.09 96.68 24.69Q97.56 23.28 99.84 22.22Q102.13 21.15 101.40 21.46Q100.66 21.76 95.90 22.24Q91.13 22.71 96.34 22.01Q101.54 21.31 102.06 20.78Q102.58 20.25 102.80 19.05Q103.03 17.85 103.05 16.82Q103.07 15.78 102.91 14.74Q102.75 13.69 101.98 12.63Q101.21 11.56 101.29 11.23Q101.37 10.90 101.58 10.59ZM100.27 23.98L100.27 23.98Q99.86 24.16 99.06 24.94Q98.26 25.72 97.97 26.40Q97.68 27.07 97.81 27.47Q97.95 27.87 98.99 26.80Q100.04 25.72 100.36 25.03Q100.68 24.34 100.69 24.07Q100.70 23.81 100.27 23.98ZM111.39 10.47L111.39 10.47Q112.40 10.23 113.05 10.72Q113.69 11.21 112.79 12.44Q111.89 13.67 110.27 17.63Q108.65 21.58 108.16 23.24Q107.68 24.90 108.09 24.45Q108.50 24.00 108.90 23.64Q109.30 23.28 109.79 22.90Q110.27 22.52 110.67 22.34Q111.07 22.17 111.56 22.08Q112.05 21.99 112.45 22.22Q112.85 22.44 113.08 22.79Q113.30 23.14 113.35 24.06Q113.40 24.98 113.24 25.99Q113.09 26.99 113.22 27.50Q113.36 28.01 113.72 28.40Q114.08 28.79 114.96 28.58Q115.84 28.38 116.33 27.86Q116.82 27.34 116.55 27.93Q116.29 28.52 115.77 28.97Q115.25 29.43 114.51 29.78Q113.77 30.12 113.30 30.13Q112.83 30.14 112.34 29.74Q111.86 29.34 111.68 28.58Q111.50 27.83 111.60 26.25Q111.70 24.67 111.38 24.37Q111.05 24.06 109.72 25.06Q108.38 26.05 107.70 27.30Q107.01 28.55 106.68 29.42Q106.35 30.29 105.86 30.16Q105.37 30.02 105.10 29.71Q104.82 29.39 104.82 28.82Q104.82 28.24 106.00 24.36Q107.17 20.47 108.67 16.76Q110.18 13.05 110.43 12.25Q110.68 11.45 111.39 10.47ZM123.13 21.66L123.13 21.66Q123.57 21.54 124.11 21.62Q124.65 21.70 124.97 21.95Q125.29 22.21 125.59 22.95Q125.88 23.69 125.32 23.95Q124.77 24.20 124.32 23.77Q123.87 23.34 123.38 23.59Q122.89 23.85 122.41 24.11Q121.93 24.38 121.23 24.94Q120.53 25.51 119.79 26.39Q119.04 27.27 118.96 27.51Q118.89 27.75 119.35 27.44Q119.80 27.13 120.75 26.49Q121.70 25.86 123.13 25.20Q124.57 24.53 124.95 24.68Q125.33 24.82 125.61 25.21Q125.88 25.61 125.92 25.89Q125.96 26.17 125.83 26.34Q125.70 26.50 125.54 27.09Q125.37 27.68 125.57 28.22Q125.76 28.77 126.06 28.97Q126.37 29.18 126.89 29.09Q127.42 29.00 128.19 28.29Q128.96 27.58 128.13 28.62Q127.29 29.67 126.80 29.95Q126.31 30.23 126.04 30.22Q125.76 30.21 125.32 30.05Q124.88 29.88 124.49 29.53Q124.10 29.18 123.88 28.67Q123.65 28.16 123.57 27.92Q123.50 27.68 123.21 27.38Q122.93 27.09 122.52 27.26Q122.11 27.42 121.08 28.16Q120.06 28.91 119.17 29.38Q118.28 29.86 117.58 30.05Q116.88 30.23 116.67 30.18Q116.46 30.12 116.22 29.74Q115.98 29.36 115.94 28.91Q115.90 28.46 116.06 28.00Q116.23 27.54 117.31 26.16Q118.40 24.79 119.40 23.91Q120.41 23.03 121.54 22.41Q122.68 21.80 123.13 21.66ZM129.24 24.30L129.24 24.30Q129.94 21.58 130.60 21.64Q131.25 21.70 131.58 22.23Q131.91 22.75 131.51 23.53Q131.11 24.30 131.44 24.25Q131.76 24.20 132.29 23.86Q132.81 23.52 133.29 23.31Q133.77 23.11 134.06 23.05Q134.36 22.99 135.19 23.24Q136.02 23.50 136.76 23.96Q137.50 24.41 138.72 24.03Q139.94 23.65 138.46 24.29Q136.97 24.92 135.42 24.88Q133.87 24.84 133.02 25.25Q132.17 25.66 131.58 26.16Q131.00 26.66 130.50 27.80Q130 28.95 129.74 29.73Q129.47 30.51 129.27 31.01Q129.06 31.50 128.43 31.53Q127.79 31.56 127.59 31.07Q127.38 30.59 127.49 30.44Q127.60 30.29 128.08 28.65Q128.55 27.01 129.24 24.30ZM143.96 23.09L143.96 23.09Q144.34 22.70 144.84 22.83Q145.35 22.97 145.57 23.28Q145.78 23.59 145.71 23.93Q145.64 24.26 145.68 25.15Q145.72 26.04 145.54 27.70Q145.35 29.36 145.18 30.47Q145 31.58 144.38 33.04Q143.75 34.49 142.73 35.77Q141.72 37.05 140.34 38.00Q138.96 38.95 137.89 39.40Q136.82 39.86 136.19 39.96Q135.57 40.06 134.98 39.96Q134.39 39.86 133.96 39.11Q133.54 38.36 134.38 36.92Q135.21 35.49 134.66 36.78Q134.10 38.07 135.30 38.21Q136.50 38.36 137.34 37.91Q138.18 37.46 139.30 36.54Q140.41 35.63 141.01 34.95Q141.60 34.28 142.31 32.97Q143.03 31.66 143.41 30Q143.79 28.34 143.84 27.54Q143.89 26.74 143.86 26.61Q143.83 26.48 143.50 26.72Q143.16 26.95 142.80 27.34Q142.44 27.73 142.02 28.10Q141.60 28.46 140.72 29.11Q139.84 29.77 139.26 29.79Q138.67 29.80 138.12 29.57Q137.56 29.34 137.29 28.85Q137.03 28.36 137.03 27.72Q137.03 27.09 137.13 26.81Q137.23 26.52 137.66 24.94Q138.09 23.36 138.60 23.13Q139.12 22.91 139.42 22.93Q139.73 22.95 139.90 23.27Q140.08 23.59 139.86 24.06Q139.65 24.53 139.32 25.64Q138.98 26.76 139.05 27.36Q139.12 27.97 139.60 27.78Q140.08 27.60 140.51 27.28Q140.94 26.95 141.30 26.55Q141.66 26.15 142.64 24.81Q143.61 23.48 143.96 23.09Z" fill="white"></path></svg>